<svg width="119" height="121" viewBox="0 0 119 121" fill="none" xmlns="http://www.w3.org/2000/svg">
<path d="M34.5 94.5V100H34.4999L34.5 94.5ZM111.875 114.814L115.312 110.521L115.312 110.521L111.875 114.814ZM113.5 34.5L119 34.5V34.5H113.5ZM87.048 94.9387L90.4853 90.6451L87.048 94.9387ZM5.5 65.5H11C11 78.4785 21.5214 88.9999 34.5001 89L34.5 94.5L34.4999 100C15.4464 99.9998 0 84.5538 0 65.5H5.5ZM34.5 94.5V89H85.798V94.5V100H34.5V94.5ZM87.048 94.9387L90.4853 90.6451L115.312 110.521L111.875 114.814L108.438 119.108L83.6107 99.2323L87.048 94.9387ZM111.875 114.814L115.312 110.521C112.369 108.165 108 110.256 108 114.034H113.5H119C119 119.49 112.69 122.512 108.438 119.108L111.875 114.814ZM113.5 114.034H108V34.5H113.5H119V114.034H113.5ZM113.5 34.5L108 34.5C108 21.5214 97.4786 11 84.5 11V5.5V0C103.554 0 119 15.4463 119 34.5L113.5 34.5ZM84.5 5.5V11H7.5V5.5V0H84.5V5.5ZM5.5 7.5H11V65.5H5.5H0V7.5H5.5ZM7.5 5.5V11C9.43299 11 11 9.433 11 7.5H5.5H0C0 3.35786 3.35787 0 7.5 0V5.5ZM85.798 94.5V89C87.502 89 89.1551 89.5802 90.4853 90.6451L87.048 94.9387L83.6107 99.2323C84.2314 99.7292 85.0029 100 85.798 100V94.5Z" fill="white"/>
<path d="M59.5 47.5381C59.0056 47.5381 58.5222 47.6847 58.1111 47.9594C57.7 48.2341 57.3795 48.6246 57.1903 49.0814C57.0011 49.5382 56.9516 50.0409 57.0481 50.5258C57.1445 51.0108 57.3826 51.4562 57.7323 51.8059C58.0819 52.1555 58.5273 52.3936 59.0123 52.49C59.4972 52.5865 59.9999 52.537 60.4567 52.3478C60.9135 52.1586 61.304 51.8381 61.5787 51.427C61.8534 51.0159 62 50.5325 62 50.0381C62 49.375 61.7366 48.7392 61.2678 48.2703C60.7989 47.8015 60.1631 47.5381 59.5 47.5381ZM78.55 50.0381L78.825 49.6881C82.2 45.0381 83 40.7631 81.15 37.5381C79.3 34.3131 75.15 32.8881 69.5 33.4631H69.05C66.775 28.2881 63.4 25.0381 59.5 25.0381C55.6 25.0381 52.225 28.2881 49.975 33.5381L49.5 33.4631C43.85 32.8881 39.7 34.3131 37.85 37.5381C36 40.7631 36.8 45.0381 40.175 49.6881L40.45 50.0381L40.175 50.3881C36.8 55.0381 36 59.3131 37.85 62.5381C39.5 65.2881 42.675 66.7381 47 66.7381C47.775 66.7381 48.575 66.7381 49.5 66.6131H49.95C52.225 71.7881 55.6 75.0381 59.5 75.0381C63.4 75.0381 66.775 71.7881 69.025 66.5381H69.475C70.325 66.5381 71.125 66.6631 71.975 66.6631C76.4 66.6631 79.65 65.2131 81.225 62.4631C83.075 59.2381 82.275 54.9631 78.9 50.3131L78.55 50.0381ZM42.175 40.0381C42.8 38.9381 44.675 38.3381 47.175 38.3381H48.4C48.0083 39.876 47.716 41.4376 47.525 43.0131C46.2514 43.9765 45.0406 45.0203 43.9 46.1381C42 43.6381 41.45 41.2881 42.175 40.0381ZM42.175 60.0381C41.45 58.7881 42.175 56.4381 43.85 53.8631C44.9906 54.9809 46.2014 56.0247 47.475 56.9881C47.666 58.5718 47.9583 60.1417 48.35 61.6881C45.25 61.8881 42.9 61.2881 42.175 60.0381ZM59.5 30.0381C60.9 30.0381 62.575 31.6881 64 34.6131C62.4727 35.0564 60.9705 35.5821 59.5 36.1881C58.0296 35.5821 56.5274 35.0564 55 34.6131C56.425 31.6881 58.1 30.0381 59.5 30.0381ZM59.5 70.0381C58.1 70.0381 56.425 68.3881 55 65.4631C56.5274 65.0198 58.0296 64.494 59.5 63.8881C60.9705 64.494 62.4727 65.0198 64 65.4631C62.575 68.3881 60.9 70.0381 59.5 70.0381ZM66.825 54.2631C65.675 55.0631 64.5 55.8131 63.25 56.5381C62 57.2631 60.75 57.9131 59.5 58.4881C58.25 57.9048 57 57.2548 55.75 56.5381C54.5 55.8131 53.25 55.0631 52.175 54.2631C52 52.9131 52 51.5131 52 50.0381C52 48.5631 52 47.1631 52.175 45.8131C53.325 45.0131 54.5 44.2631 55.75 43.5381C57 42.8131 58.25 42.1631 59.5 41.5881C60.75 42.1714 62 42.8214 63.25 43.5381C64.5 44.2631 65.75 45.0131 66.825 45.8131C66.825 47.1631 67 48.5631 67 50.0381C67 51.5131 67 52.9131 66.825 54.2631V54.2631ZM76.825 60.0381C76.1 61.2881 73.75 61.9131 70.65 61.6881C71.0418 60.1417 71.334 58.5718 71.525 56.9881C72.7987 56.0247 74.0095 54.9809 75.15 53.8631C77 56.4381 77.55 58.7881 76.825 60.0381ZM75.15 46.2131C74.0095 45.0953 72.7987 44.0515 71.525 43.0881C71.3341 41.5126 71.0418 39.951 70.65 38.4131H71.875C74.375 38.4131 76.2 39.0131 76.875 40.1131C77.55 41.2131 77 43.6381 75.15 46.2131V46.2131Z" fill="#9C63FF"/>
</svg>
